<svg xmlns="http://www.w3.org/2000/svg" xmlns:xlink="http://www.w3.org/1999/xlink" width="63.596" height="63.564" viewBox="0 0 63.596 63.564">
  <defs>
    <linearGradient id="linear-gradient" y1="0.5" x2="1" y2="0.5" gradientUnits="objectBoundingBox">
      <stop offset="0" stop-color="#7c72ff"/>
      <stop offset="1" stop-color="#6d64f4"/>
    </linearGradient>
  </defs>
  <g id="Grupo_2" data-name="Grupo 2" transform="translate(-186.009 -513)">
    <path id="Fill-6" d="M111.914,32.422A31.107,31.107,0,1,1,80.806,1.33a31.1,31.1,0,0,1,31.108,31.092" transform="translate(137 512.36)" fill="#fff" fill-rule="evenodd"/>
    <g id="Group-10" transform="translate(185.688 512.427)">
      <path id="Fill-8" d="M32.119.573A31.826,31.826,0,0,0,.322,32.355h0a31.825,31.825,0,0,0,31.8,31.781h0a31.826,31.826,0,0,0,31.8-31.781h0A31.826,31.826,0,0,0,32.119.573ZM1.7,32.355a30.444,30.444,0,0,1,30.416-30.4h0a30.443,30.443,0,0,1,30.416,30.4h0a30.443,30.443,0,0,1-30.416,30.4h0A30.444,30.444,0,0,1,1.7,32.355Z" fill-rule="evenodd" fill="url(#linear-gradient)"/>
    </g>
    <path id="Fill-16" d="M86.336,32.422a5.53,5.53,0,1,1-5.53-5.527,5.528,5.528,0,0,1,5.53,5.527" transform="translate(137 512.36)" fill="#fff" fill-rule="evenodd"/>
    <g id="Group-20" transform="translate(211.953 538.68)">
      <path id="Fill-18" d="M.019,6.1a5.84,5.84,0,0,0,5.835,5.832h0A5.84,5.84,0,0,0,11.688,6.1h0A5.84,5.84,0,0,0,5.853.27h0A5.84,5.84,0,0,0,.019,6.1m.611,0A5.229,5.229,0,0,1,5.853.88h0A5.229,5.229,0,0,1,11.078,6.1h0a5.23,5.23,0,0,1-5.225,5.222h0A5.229,5.229,0,0,1,.629,6.1" fill-rule="evenodd" fill="url(#linear-gradient)"/>
    </g>
    <path id="Fill-57" d="M84.733,8.386V23.622A9.559,9.559,0,0,1,89.609,28.5h15.244A24.323,24.323,0,0,0,84.733,8.386" transform="translate(137 512.36)" fill="#fff" fill-rule="evenodd"/>
    <g id="Group-61" transform="translate(220.922 520.111)">
      <path id="Fill-59" d="M.476.242A.518.518,0,0,0,.294.635h0V15.872a.517.517,0,0,0,.308.472h0a9.012,9.012,0,0,1,4.613,4.611h0a.514.514,0,0,0,.471.307H20.932a.521.521,0,0,0,.394-.181h0a.524.524,0,0,0,.117-.417h0A24.715,24.715,0,0,0,.893.125h0A.544.544,0,0,0,.814.119h0A.525.525,0,0,0,.476.242m.851,15.3V1.248A23.679,23.679,0,0,1,20.318,20.23H6.019a10.039,10.039,0,0,0-4.691-4.688" fill-rule="evenodd" fill="url(#linear-gradient)"/>
    </g>
    <path id="Fill-62" d="M76.881,8.386A24.325,24.325,0,0,0,56.759,28.5H72a9.568,9.568,0,0,1,4.878-4.875Z" transform="translate(137 512.36)" fill="#fff" fill-rule="evenodd"/>
    <g id="Group-66" transform="translate(192.734 520.111)">
      <path id="Fill-64" d="M21.066.125A24.716,24.716,0,0,0,.514,20.665h0a.52.52,0,0,0,.117.417h0a.518.518,0,0,0,.394.181H16.269a.517.517,0,0,0,.473-.307h0a9.015,9.015,0,0,1,4.614-4.611h0a.517.517,0,0,0,.308-.472h0V.635a.518.518,0,0,0-.181-.393h0a.525.525,0,0,0-.338-.123h0a.54.54,0,0,0-.078.006m-.435,1.123V15.542a10.029,10.029,0,0,0-4.692,4.688H1.639A23.677,23.677,0,0,1,20.631,1.248" fill-rule="evenodd" fill="url(#linear-gradient)"/>
    </g>
    <path id="Fill-67" d="M72,36.345H56.759A24.326,24.326,0,0,0,76.882,56.457V41.22A9.569,9.569,0,0,1,72,36.345" transform="translate(137 512.36)" fill="#fff" fill-rule="evenodd"/>
    <g id="Group-71" transform="translate(192.734 547.644)">
      <path id="Fill-69" d="M1.026.544A.519.519,0,0,0,.632.725h0a.518.518,0,0,0-.117.417h0A24.718,24.718,0,0,0,21.066,21.683h0a.564.564,0,0,0,.081.006h0a.52.52,0,0,0,.335-.123h0a.517.517,0,0,0,.181-.394h0V5.936a.516.516,0,0,0-.308-.473h0A9.014,9.014,0,0,1,16.742.852h0a.518.518,0,0,0-.473-.307H1.026Zm.613,1.032h14.3a10.039,10.039,0,0,0,4.692,4.689h0V20.559A23.681,23.681,0,0,1,1.639,1.576Z" fill-rule="evenodd" fill="url(#linear-gradient)"/>
    </g>
    <path id="Fill-72" d="M84.733,56.457a24.325,24.325,0,0,0,20.12-20.112H89.609a9.559,9.559,0,0,1-4.877,4.875Z" transform="translate(137 512.36)" fill="#fff" fill-rule="evenodd"/>
    <g id="Group-76" transform="translate(220.922 547.644)">
      <path id="Fill-74" d="M5.687.544a.515.515,0,0,0-.471.307h0A9.014,9.014,0,0,1,.6,5.463h0a.517.517,0,0,0-.308.473h0V21.172a.518.518,0,0,0,.182.394h0a.52.52,0,0,0,.335.123h0a.6.6,0,0,0,.082-.006h0A24.719,24.719,0,0,0,21.442,1.142h0a.523.523,0,0,0-.117-.417h0a.522.522,0,0,0-.394-.181H5.687ZM1.327,6.265A10.041,10.041,0,0,0,6.019,1.576h14.3A23.679,23.679,0,0,1,1.327,20.559h0Z" fill-rule="evenodd" fill="url(#linear-gradient)"/>
    </g>
  </g>
</svg>
