<svg xmlns="http://www.w3.org/2000/svg" xmlns:xlink="http://www.w3.org/1999/xlink" width="45.901" height="45.877" viewBox="0 0 45.901 45.877">
  <defs>
    <linearGradient id="linear-gradient" y1="0.5" x2="1" y2="0.5" gradientUnits="objectBoundingBox">
      <stop offset="0" stop-color="#7c72ff"/>
      <stop offset="1" stop-color="#6d64f4"/>
    </linearGradient>
  </defs>
  <g id="Grupo_1" data-name="Grupo 1" transform="translate(-122 -482.443)">
    <path id="Fill-11" d="M45.21,41.265a22.259,22.259,0,1,1-22.26-22.249A22.255,22.255,0,0,1,45.21,41.265" transform="translate(122 464.117)" fill="#37383c" fill-rule="evenodd"/>
    <g id="Group-15" transform="translate(122 482.113)">
      <path id="Fill-13" d="M0,23.269A22.971,22.971,0,0,0,22.95,46.208h0A22.971,22.971,0,0,0,45.9,23.269h0A22.971,22.971,0,0,0,22.95.33h0A22.971,22.971,0,0,0,0,23.269m1.381,0A21.588,21.588,0,0,1,22.95,1.711h0A21.589,21.589,0,0,1,44.519,23.269h0A21.589,21.589,0,0,1,22.95,44.827h0A21.588,21.588,0,0,1,1.381,23.269" fill-rule="evenodd" fill="url(#linear-gradient)"/>
    </g>
    <path id="Fill-77" d="M25.926,24.393V35.165a6.756,6.756,0,0,1,3.448,3.446H40.152A17.2,17.2,0,0,0,25.926,24.393" transform="translate(122 464.117)" fill="#37383c" fill-rule="evenodd"/>
    <g id="Group-81" transform="translate(146.984 487.876)">
      <path id="Fill-79" d="M.7.356A.367.367,0,0,0,.577.635h0V11.407a.364.364,0,0,0,.217.334h0A6.367,6.367,0,0,1,4.055,15h0a.366.366,0,0,0,.334.217H15.167a.368.368,0,0,0,.279-.128h0a.367.367,0,0,0,.082-.295h0A17.473,17.473,0,0,0,1,.273H1a.408.408,0,0,0-.056,0h0A.371.371,0,0,0,.7.356m.6,10.817V1.068a16.74,16.74,0,0,1,13.426,13.42H4.623a7.1,7.1,0,0,0-3.317-3.314" fill-rule="evenodd" fill="url(#linear-gradient)"/>
    </g>
    <path id="Fill-82" d="M20.375,24.393A17.2,17.2,0,0,0,6.149,38.611H16.927a6.76,6.76,0,0,1,3.448-3.446Z" transform="translate(122 464.117)" fill="#37383c" fill-rule="evenodd"/>
    <g id="Group-86" transform="translate(127.766 487.876)">
      <path id="Fill-84" d="M14.552.273A17.476,17.476,0,0,0,.022,14.8h0a.367.367,0,0,0,.083.295h0a.366.366,0,0,0,.277.128H11.161A.366.366,0,0,0,11.495,15h0a6.371,6.371,0,0,1,3.263-3.26h0a.365.365,0,0,0,.218-.334h0V.635a.368.368,0,0,0-.129-.279h0A.373.373,0,0,0,14.608.27h0a.408.408,0,0,0-.056,0m-.308.795V11.174a7.1,7.1,0,0,0-3.317,3.314H.817A16.74,16.74,0,0,1,14.244,1.068" fill-rule="evenodd" fill="url(#linear-gradient)"/>
    </g>
    <path id="Fill-87" d="M16.927,44.16H6.149A17.2,17.2,0,0,0,20.375,58.379V47.607a6.764,6.764,0,0,1-3.448-3.447" transform="translate(122 464.117)" fill="#37383c" fill-rule="evenodd"/>
    <g id="Group-91" transform="translate(127.766 507.725)">
      <path id="Fill-89" d="M.383.186A.366.366,0,0,0,.106.314h0A.367.367,0,0,0,.022.609h0A17.476,17.476,0,0,0,14.552,15.131h0a.43.43,0,0,0,.058,0h0a.369.369,0,0,0,.237-.087h0a.367.367,0,0,0,.129-.279h0V4a.366.366,0,0,0-.218-.334h0A6.374,6.374,0,0,1,11.495.4h0a.367.367,0,0,0-.334-.218H.383Zm.434.73h10.11a7.092,7.092,0,0,0,3.317,3.315h0V14.337A16.743,16.743,0,0,1,.817.916Z" fill-rule="evenodd" fill="url(#linear-gradient)"/>
    </g>
    <path id="Fill-92" d="M25.926,58.379A17.2,17.2,0,0,0,40.152,44.16H29.374a6.76,6.76,0,0,1-3.448,3.447Z" transform="translate(122 464.117)" fill="#37383c" fill-rule="evenodd"/>
    <g id="Group-96" transform="translate(146.984 507.725)">
      <path id="Fill-94" d="M4.389.186A.366.366,0,0,0,4.055.4h0A6.369,6.369,0,0,1,.794,3.664h0A.365.365,0,0,0,.577,4h0V14.769a.367.367,0,0,0,.128.279h0a.37.37,0,0,0,.236.087h0a.432.432,0,0,0,.058,0H1A17.475,17.475,0,0,0,15.528.609h0a.366.366,0,0,0-.082-.295h0a.368.368,0,0,0-.279-.129H4.389ZM1.307,4.231A7.092,7.092,0,0,0,4.623.916h10.11A16.743,16.743,0,0,1,1.307,14.337h0Z" fill-rule="evenodd" fill="url(#linear-gradient)"/>
    </g>
  </g>
</svg>
