<svg id="GIFOS" xmlns="http://www.w3.org/2000/svg" width="20" height="20" viewBox="0 0 20 20">
  <g id="_00-UI-Kit" data-name="00-UI-Kit" transform="translate(-637 -518)">
    <g id="_-Nav-Desktop-Sticky" data-name="-Nav-Desktop-Sticky" transform="translate(0 479)">
      <g id="icon-search" transform="translate(637 39)">
        <path id="Trazado_1" data-name="Trazado 1" d="M8.5,0a8.5,8.5,0,0,1,6.677,13.761l4.53,4.532a1,1,0,0,1-1.414,1.414h0l-4.532-4.53A8.5,8.5,0,1,1,8.5,0Zm0,2a6.5,6.5,0,1,0,4.548,11.144l.045-.051c.016-.016.033-.032.05-.046A6.5,6.5,0,0,0,8.5,2Z" fill="#d8d8d8"/>
      </g>
    </g>
  </g>
</svg>
