<svg xmlns="http://www.w3.org/2000/svg" width="63" height="59" viewBox="0 0 63 59">
  <g id="Grupo_5" data-name="Grupo 5" transform="translate(-97 -401)">
    <path id="Icon_metro-file-picture" data-name="Icon metro-file-picture" d="M53.693,15.127A52.244,52.244,0,0,0,48.67,9.382a52.256,52.256,0,0,0-5.745-5.023c-2.972-2.179-4.413-2.431-5.239-2.431H9.108A4.615,4.615,0,0,0,4.5,6.537V56.319a4.615,4.615,0,0,0,4.609,4.609H51.514a4.615,4.615,0,0,0,4.609-4.609V20.366c0-.826-.252-2.267-2.431-5.239Zm-7.63-3.137a50.29,50.29,0,0,1,4.182,4.689h-8.87V7.808a50.239,50.239,0,0,1,4.689,4.181Zm6.374,44.329a.934.934,0,0,1-.922.922H9.108a.934.934,0,0,1-.922-.922V6.537a.934.934,0,0,1,.922-.922H37.686V18.522a1.844,1.844,0,0,0,1.844,1.844H52.436Z" transform="translate(103.876 399.072)" fill="#5ed7c6"/>
    <rect id="Rectángulo_2" data-name="Rectángulo 2" width="50" height="21" rx="9" transform="translate(97 425)" fill="#5ed7c6"/>
    <text id="GIFOS" transform="translate(102 440)" fill="#fff" font-size="14" font-family="Roboto-Bold, Roboto" font-weight="700"><tspan x="0" y="0">GIFOS</tspan></text>
  </g>
</svg>
