<svg xmlns="http://www.w3.org/2000/svg" width="52.438" height="49.109" viewBox="0 0 52.438 49.109">
  <g id="Grupo_3" data-name="Grupo 3" transform="translate(-190 -514)">
    <path id="Icon_metro-file-picture" data-name="Icon metro-file-picture" d="M45.445,12.914a43.486,43.486,0,0,0-4.181-4.782,43.5,43.5,0,0,0-4.782-4.181c-2.473-1.814-3.673-2.024-4.36-2.024H8.335A3.841,3.841,0,0,0,4.5,5.765V47.2a3.841,3.841,0,0,0,3.837,3.837h35.3A3.841,3.841,0,0,0,47.469,47.2V17.274c0-.687-.21-1.887-2.024-4.361ZM39.094,10.3a41.859,41.859,0,0,1,3.481,3.9H35.192V6.822a41.817,41.817,0,0,1,3.9,3.48ZM44.4,47.2a.778.778,0,0,1-.767.767H8.335a.778.778,0,0,1-.767-.767V5.765A.778.778,0,0,1,8.335,5H32.122V15.74a1.535,1.535,0,0,0,1.535,1.535H44.4Z" transform="translate(194.969 512.072)" fill="#5ed7c6"/>
    <rect id="Rect치ngulo_3" data-name="Rect치ngulo 3" width="41" height="17" rx="8.5" transform="translate(190 534)" fill="#5ed7c6"/>
    <text id="GIFOS" transform="translate(193 546)" fill="#572ee5" font-size="11" font-family="Roboto-Bold, Roboto" font-weight="700"><tspan x="0" y="0">GIFOS</tspan></text>
    <g id="Grupo_2" data-name="Grupo 2">
      <path id="Icon_metro-file-picture-2" data-name="Icon metro-file-picture" d="M45.445,12.914a43.486,43.486,0,0,0-4.181-4.782,43.5,43.5,0,0,0-4.782-4.181c-2.473-1.814-3.673-2.024-4.36-2.024H8.335A3.841,3.841,0,0,0,4.5,5.765V47.2a3.841,3.841,0,0,0,3.837,3.837h35.3A3.841,3.841,0,0,0,47.469,47.2V17.274c0-.687-.21-1.887-2.024-4.361ZM39.094,10.3a41.859,41.859,0,0,1,3.481,3.9H35.192V6.822a41.817,41.817,0,0,1,3.9,3.48ZM44.4,47.2a.778.778,0,0,1-.767.767H8.335a.778.778,0,0,1-.767-.767V5.765A.778.778,0,0,1,8.335,5H32.122V15.74a1.535,1.535,0,0,0,1.535,1.535H44.4Z" transform="translate(194.969 512.072)" fill="#5ed7c6"/>
      <rect id="Rect치ngulo_5" data-name="Rect치ngulo 5" width="41" height="17" rx="8.5" transform="translate(190 534)" fill="#5ed7c6"/>
      <text id="GIFOS-2" data-name="GIFOS" transform="translate(195 546)" fill="#572ee5" font-size="11" font-family="Roboto-Bold, Roboto" font-weight="700"><tspan x="0" y="0">GIFOS</tspan></text>
    </g>
  </g>
</svg>
