<svg xmlns="http://www.w3.org/2000/svg" width="20" height="20.003" viewBox="0 0 20 20.003">
  <path id="Icon_awesome-microphone-alt" data-name="Icon awesome-microphone-alt" d="M19.091,7.5h-.909c-.5,0-.909.28-.909.625V10c0,2.922-3.664,5.266-8,4.976-3.778-.254-6.546-2.589-6.546-5.2V8.125c0-.345-.407-.625-.909-.625H.909c-.5,0-.909.28-.909.625V9.694c0,3.5,3.635,6.623,8.636,7.1v1.334H5.455c-.5,0-.909.28-.909.625v.625c0,.345.407.625.909.625h9.091c.5,0,.909-.28.909-.625V18.75c0-.345-.407-.625-.909-.625H11.364V16.806C16.234,16.346,20,13.473,20,10V8.125C20,7.78,19.593,7.5,19.091,7.5ZM10,13.75c3.012,0,5.455-1.679,5.455-3.75H10.606C10.272,10,10,9.86,10,9.688V9.063c0-.173.272-.312.606-.312h4.848V7.5H10.606c-.335,0-.606-.14-.606-.312V6.563c0-.173.272-.312.606-.312h4.848V5H10.606C10.272,5,10,4.86,10,4.688V4.063c0-.173.272-.312.606-.312h4.848C15.455,1.679,13.012,0,10,0S4.545,1.679,4.545,3.75V10C4.545,12.071,6.988,13.75,10,13.75Z" fill="#fff"/>
</svg>
